<svg xmlns="http://www.w3.org/2000/svg" xmlns:xlink="http://www.w3.org/1999/xlink" width="0" height="0" style="position:absolute">
	
		<symbol id="icon-alert" viewBox="0 0 36 36">
			<path d="M18 0a18 18 0 1 0 18 18A18 18 0 0 0 18 0zm2 30h-4v-4h4zm0-8h-4V5h4z"></path>
		</symbol>
	
		<symbol id="icon-chat" viewBox="0 0 20 21">
			<path d="M15 10.1c-.8 0-1.5-.7-1.5-1.5s.7-1.5 1.5-1.5 1.5.7 1.5 1.5-.7 1.5-1.5 1.5m-5 0c-.8 0-1.5-.7-1.5-1.5s.7-1.5 1.5-1.5 1.5.7 1.5 1.5-.7 1.5-1.5 1.5m-5 0c-.8 0-1.5-.7-1.5-1.5S4.2 7.1 5 7.1s1.5.7 1.5 1.5-.7 1.5-1.5 1.5m7-9.5H8c-4.4 0-8 3.6-8 8 0 3 1.6 5.5 4 6.9v5.1l4-4h4c4.4 0 8-3.6 8-8s-3.6-8-8-8"></path>
		</symbol>
	
		<symbol id="icon-envelope" viewBox="0 0 18 15">
			<path d="M9.6 8l8.1-6.6c-.3-.5-.9-.8-1.5-.8H1.8C1.2.6.7.9.3 1.4L8.4 8c.4.2.8.2 1.2 0z"></path><path d="M10.7 9.4c-.5.4-1.1.6-1.7.6-.6 0-1.2-.2-1.7-.6L0 3.4v8.9c0 1 .8 1.8 1.8 1.8h14.4c1 0 1.8-.8 1.8-1.8V3.4l-7.3 6z"></path>
		</symbol>
	
		<symbol id="icon-facebook" viewBox="0 0 9 19">
			<path d="M5.4 6.4V4.5c0-.7.5-.9.8-.9h2v-3H5.5c-3 0-3.7 2.3-3.7 3.8v2.1H0v3.2h1.7v9h3.7v-9h2.5l.3-3.2H5.4z"></path>
		</symbol>
	
		<symbol id="icon-location" viewBox="0 0 30 30">
			<path d="M14.9 1.9c.3 0 .5.2.5.5v4.4c0 .3-.2.5-.5.5s-.5-.2-.5-.5V2.4c0-.3.3-.5.5-.5zm0 20.6c.3 0 .5.2.5.5v4.4c0 .3-.2.5-.5.5s-.5-.2-.5-.5V23c0-.3.3-.5.5-.5zm0-20.6c.3 0 .5.2.5.5v4.4c0 .3-.2.5-.5.5s-.5-.2-.5-.5V2.4c0-.3.3-.5.5-.5zm0 20.6c.3 0 .5.2.5.5v4.4c0 .3-.2.5-.5.5s-.5-.2-.5-.5V23c0-.3.3-.5.5-.5zm13-7.6c0 .2-.2.4-.4.4H23c-.2 0-.4-.2-.4-.4s.2-.4.4-.4h4.5c.2-.1.4.1.4.4zm-20.6 0c0 .2-.2.4-.4.4H2.3c-.2 0-.4-.2-.4-.4s.2-.4.4-.4h4.5c.3-.1.5.1.5.4zm7.6 14.2C7 29.1.6 22.7.6 14.8.6 7 7 .6 14.9.6S29.1 7 29.1 14.8c0 7.9-6.4 14.3-14.2 14.3zm0-26.9c-7 0-12.6 5.7-12.6 12.6 0 7 5.7 12.6 12.6 12.6 7 0 12.6-5.7 12.6-12.6 0-6.9-5.6-12.6-12.6-12.6z"></path>
		</symbol>
	
		<symbol id="icon-location-pin" viewBox="0 0 16 20">
			<path d="M8 11c-1.7 0-3-1.3-3-3s1.3-3 3-3 3 1.3 3 3-1.3 3-3 3M5.7.3c-1 .3-1.9.9-2.7 1.6C-6 10.5 8 20 8 20s8-5.5 8-11.8C16 2.9 11.1-1.2 5.7.3"></path>
		</symbol>
	
		<symbol id="icon-password-icon" viewBox="0 0 16 20">
			<path d="M11 8H5V5c0-1.6 1.4-3 3-3s3 1.3 3 3v3zm-1 9H6l1.4-2.1c-.8-.3-1.4-1-1.4-1.9 0-1.1.9-2 2-2s2 .9 2 2c0 .9-.6 1.6-1.4 1.9L10 17zm3.8-9H13V5c0-2.7-2.3-5-5-5S3 2.2 3 5v3H1.2C0 8 0 9 0 10.2v7.7C0 19 1 20 2.2 20h11.7c1.2 0 2.2-1 2.2-2.2v-7.7C16 9 15 8 13.8 8z" fill-rule="evenodd" clip-rule="evenodd"></path>
		</symbol>
	
		<symbol id="icon-testimonial" viewBox="0 0 60 60">
			<path d="M29.9 31.4c5 0 9.1-4.1 9.1-9.1s-4.1-9.1-9.1-9.1-9.1 4.1-9.1 9.1 4.1 9.1 9.1 9.1zm0-20.7c6.5 0 11.7 5.2 11.7 11.7 0 6.5-5.3 11.7-11.7 11.7-6.5 0-11.7-5.2-11.7-11.7 0-6.5 5.3-11.7 11.7-11.7zm20.8 39c5.1-5.4 8-12.4 8-19.7C58.7 14.2 45.8 1.3 30 1.3 14.2 1.3 1.3 14.1 1.3 30c0 7.6 3 14.5 7.8 19.6 1.2-8.3 10.1-14.8 20.8-14.8 10.8 0 19.7 6.5 20.8 14.9zm-39.1 2.2c5 4.2 11.4 6.7 18.3 6.7 6.8 0 13.2-2.3 18.3-6.6v-.5c0-7.8-8.2-14.1-18.3-14.1-10.1 0-18.3 6.3-18.3 14.1v.4zM30 0c16.5 0 30 13.3 30 29.9 0 16.6-13.5 30-30 30-16.6 0-30-13.5-30-30S13.5 0 30 0z" fill-rule="evenodd"></path>
		</symbol>
	
		<symbol id="icon-twitter" viewBox="0 0 20 18">
			<path d="M19.3 1.2c-.6.3-1.1.6-1.7.8-.2.1-.3 0-.5-.1-1.6-1.6-4.2-1.8-6-.2-1 .8-1.5 2.1-1.5 3.3v.5c0 .3-.2.5-.5.5-3-.1-5.9-1.4-7.8-3.8-.2-.3-.6-.2-.7.1-.7 2.2-1.9 8.3 4.4 11.5.3.2.3.6 0 .8-1.3.8-2.8 1.3-4.3 1.4-.5.1-.5.7-.1.9 8.4 3.4 17.8-1.5 17.8-12v-.6c0-.1 0-.3.1-.4.6-.6 1.1-1.4 1.5-2.2 0-.3-.4-.7-.7-.5"></path>
		</symbol>
	
		<symbol id="icon-user" viewBox="0 0 30 30">
			<path d="M14.8 6.2c-2.9 0-5.2 2.3-5.2 5.2 0 2.9 2.3 5.2 5.2 5.2 2.9 0 5.2-2.3 5.2-5.2.1-2.8-2.2-5.2-5.2-5.2zm0 9.3c-2.2 0-4.1-1.8-4.1-4.1 0-2.2 1.8-4.1 4.1-4.1s4.1 1.8 4.1 4.1-1.8 4.1-4.1 4.1zM14.9.6C7 .6.6 7 .6 14.8.6 22.7 7 29 14.8 29S29 22.6 29 14.8C29.1 7 22.7.6 14.9.6zm0 26.9c-3.1 0-6-1.2-8.2-3.1.1-3.4 3.7-6.2 8.2-6.2 4.5 0 8.2 2.8 8.2 6.3-2.3 1.9-5.1 3-8.2 3zm9.2-4c-.6-3.6-4.5-6.4-9.3-6.4-4.7 0-8.6 2.8-9.3 6.3-2.1-2.3-3.3-5.2-3.3-8.5C2.2 8 7.9 2.3 14.8 2.3c7 0 12.6 5.7 12.6 12.6.1 3.3-1.2 6.3-3.3 8.6z"></path>
		</symbol>
	
		<symbol id="icon-user-icon" viewBox="0 0 20 17">
			<path d="M10 3c1.9 0 3.5 1.6 3.5 3.5S11.9 10 10 10 6.5 8.4 6.5 6.5 8.1 3 10 3m0 9c3.3 0 6.1 1.8 7.7 4.4 1.4-1.7 2.3-3.9 2.3-6.4 0-5.5-4.5-10-10-10S0 4.5 0 10c0 2.4.9 4.6 2.3 6.4C3.9 13.8 6.7 12 10 12" fill-rule="evenodd" clip-rule="evenodd"></path>
		</symbol>
	
</svg>
