<svg xmlns="http://www.w3.org/2000/svg" xmlns:xlink="http://www.w3.org/1999/xlink" width="0" height="0" style="position:absolute">
	
		<symbol id="icon-14_Day_MBG" viewBox="0 0 60 60">
			<path d="M39.38 53.15a1.3 1.3 0 0 1-1.3-1.3v-5.19h-8.77a1.31 1.31 0 0 1-1.3-1.3v-2.12a1.29 1.29 0 0 1 .3-.82l10.06-12.36a1.3 1.3 0 0 1 2.31.82v13.18h2.16a1.3 1.3 0 0 1 0 2.6h-2.16v5.19a1.31 1.31 0 0 1-1.3 1.3zm-8.77-9.09h7.47v-9.52l-7.47 9.16zm-7.15 7.79v-21a1.29 1.29 0 0 0-2-1.07l-6.61 4.5a1.3 1.3 0 0 0 1.46 2.15l4.58-3.12v18.54a1.3 1.3 0 1 0 2.6 0zm33.43-39.71a6 6 0 0 0-6-6h-9.25V1.3A.65.65 0 0 0 41 .65a.65.65 0 0 0-.65.65v4.87h-20.7V1.32A.65.65 0 0 0 19 .67a.65.65 0 0 0-.65.65v4.87H9.06a6 6 0 0 0-6 6L3.11 54a6 6 0 0 0 6 6h41.84a6 6 0 0 0 6-6zM9.06 8.8h9.29v1.79a2.76 2.76 0 1 0 1.3 0v-1.8h20.7v1.81a2.76 2.76 0 1 0 1.3 0V8.77h9.26a3.4 3.4 0 0 1 3.38 3.38v11.3H5.69V12.18A3.38 3.38 0 0 1 9.06 8.8zm9.29 4.48a.65.65 0 0 0 .65.64.65.65 0 0 0 .65-.65V12a1.48 1.48 0 1 1-1.3 0zm22 0a.65.65 0 0 0 .65.65.66.66 0 0 0 .65-.65V12a1.48 1.48 0 1 1-1.3 0zm10.59 44.09H9.09A3.39 3.39 0 0 1 5.71 54V24.76h48.61V54a3.38 3.38 0 0 1-3.38 3.37z"></path>
		</symbol>
	
		<symbol id="icon-Average_Speeds" viewBox="0 0 60 60">
			<path d="M37.72 60a1.24 1.24 0 0 1-.5-.1 1.29 1.29 0 0 1-.77-1.44l2.32-12.39L31.7 46a1.33 1.33 0 0 1-1-.54 1.25 1.25 0 0 1-.19-1.15l7.32-23.27a1.3 1.3 0 0 1 1.17-.89L50.23 20a1.29 1.29 0 0 1 1.23 1.75l-4.58 12.48h7a1.29 1.29 0 0 1 1.07 2L38.79 59.45a1.31 1.31 0 0 1-1.07.55zm-4.24-16.57h6.87a1.31 1.31 0 0 1 1 .48 1.28 1.28 0 0 1 .26 1.09l-1.5 8 11.33-16.18H45a1.29 1.29 0 0 1-1.22-1.74l4.57-12.43-8.35.09zm-7.17 1.24a22.34 22.34 0 1 1 21.32-29 1.3 1.3 0 0 1-.86 1.63 1.28 1.28 0 0 1-1.62-.85 19.74 19.74 0 1 0-18.84 25.62H27a1.34 1.34 0 0 1 1.35 1.25 1.31 1.31 0 0 1-1.26 1.35zM41 16.41a15.63 15.63 0 0 0-4.52-6.58L36 9.4l-.24-.19c-.4-.3-.81-.59-1.23-.85l-.16-.1a14.27 14.27 0 0 0-1.44-.77c-.14-.07-.29-.12-.43-.18-.35-.15-.7-.3-1.06-.42l-.28-.11h-.09A15.77 15.77 0 0 0 26.31 6v.65A15 15 0 0 0 11.38 21.6a.65.65 0 0 0 1.3 0A13.64 13.64 0 0 1 26.31 8v.65a12.81 12.81 0 0 1 4.27.73l.84.33.4.17a13.35 13.35 0 0 1 1.18.63l.18.11c.33.21.66.44 1 .67l.24.19a13 13 0 0 1 4.16 5.82 1.3 1.3 0 0 0 1.23.87 1.09 1.09 0 0 0 .43-.08 1.29 1.29 0 0 0 .76-1.68zM32.39 16a1.3 1.3 0 0 0-1.79.42l-5.41 8.7a4.32 4.32 0 0 0-.88-.1 4 4 0 1 0 3.08 1.49l5.42-8.72a1.3 1.3 0 0 0-.42-1.79zm-8.08 15.68A2.67 2.67 0 1 1 27 29a2.68 2.68 0 0 1-2.69 2.68z"></path>
		</symbol>
	
		<symbol id="icon-Calendar_05" viewBox="0 0 60 60">
			<path d="M50.9 6.2h-9.2V1.3c0-.4-.3-.6-.7-.6s-.7.3-.7.6v4.9H19.6V1.3c0-.4-.3-.6-.6-.6s-.6.3-.6.6v4.9H9c-3.3 0-6 2.7-6 6V54c0 3.3 2.7 6 6 6h41.8c3.3 0 6-2.7 6-6V12.2c.1-3.4-2.6-6-5.9-6zM41 13.9c.4 0 .7-.3.7-.6V12c.5.2.8.7.8 1.3 0 .8-.6 1.5-1.4 1.5s-1.4-.7-1.4-1.5c0-.6.3-1 .8-1.3v1.3c-.2.4.1.6.5.6zm-22 0c.4 0 .6-.3.6-.6V12c.5.2.8.7.8 1.3 0 .8-.7 1.5-1.5 1.5s-1.5-.7-1.5-1.5c0-.6.3-1 .8-1.3v1.3c.2.4.4.6.8.6zM54.3 54c0 1.9-1.5 3.4-3.4 3.4H9.1c-1.9 0-3.4-1.5-3.4-3.4V24.8h48.6V54zm0-30.5H5.7V12.2c0-.9.4-1.8 1-2.4.6-.6 1.5-1 2.4-1h9.3v1.8a2.795 2.795 0 0 0 .7 5.5c1.6 0 2.8-1.2 2.8-2.8 0-1.3-.9-2.4-2.1-2.7V8.8h20.7v1.8a2.795 2.795 0 0 0 .7 5.5c1.6 0 2.8-1.2 2.8-2.8 0-1.3-.9-2.4-2.1-2.7V8.8h9.2c1.9 0 3.4 1.5 3.4 3.4v11.3zM33.7 49.8v-8.9l-.7-.7h-7.7c-.7 0-1.3-.6-1.3-1.3v-8c0-.7.6-1.3 1.3-1.3H34c.7 0 1.3.6 1.3 1.3 0 .7-.6 1.3-1.3 1.3h-7.4v5.4h6.9c.3 0 .7.1.9.4l1.5 1.5c.2.2.4.6.4.9v10c0 .4-.1.7-.4 1l-1.5 1.4c-.2.2-.6.3-.9.3h-7c-.3 0-.6-.1-.9-.3l-1.5-1.4c-.5-.5-.6-1.3-.1-1.8s1.3-.6 1.8-.1l1.1 1h6l.8-.7z"></path>
		</symbol>
	
		<symbol id="icon-Calendar_14" viewBox="0 0 60 60">
			<path d="M50.9 6.2h-9.2V1.3c0-.4-.3-.6-.7-.6s-.7.3-.7.6v4.9H19.6V1.3c0-.4-.3-.6-.6-.6s-.6.3-.6.6v4.9H9c-3.3 0-6 2.7-6 6V54c0 3.3 2.7 6 6 6h41.8c3.3 0 6-2.7 6-6V12.2c.1-3.4-2.6-6-5.9-6zM6.7 9.8c.6-.6 1.5-1 2.4-1h9.3v1.8a2.795 2.795 0 0 0 .7 5.5c1.6 0 2.8-1.2 2.8-2.8 0-1.3-.9-2.4-2.1-2.7V8.8h20.7v1.8a2.795 2.795 0 0 0 .7 5.5c1.6 0 2.8-1.2 2.8-2.8 0-1.3-.9-2.4-2.1-2.7V8.8h9.2c1.9 0 3.4 1.5 3.4 3.4v11.3H5.7V12.2c0-.9.4-1.8 1-2.4zM19 13.9c.4 0 .6-.3.6-.6V12c.5.2.8.7.8 1.3 0 .8-.7 1.5-1.5 1.5s-1.5-.7-1.5-1.5c0-.6.3-1 .8-1.3v1.3c.2.4.4.6.8.6zm22 0c.4 0 .7-.3.7-.6V12c.5.2.8.7.8 1.3 0 .8-.6 1.5-1.4 1.5s-1.4-.7-1.4-1.5c0-.6.3-1 .8-1.3v1.3c-.2.4.1.6.5.6zm9.9 43.5H9.1c-1.9 0-3.4-1.5-3.4-3.4V24.8h48.6V54c0 1.9-1.5 3.4-3.4 3.4zm-8.1-13.3h-2.1V30.9c0-.5-.3-1-.9-1.2-.5-.2-1.1 0-1.4.4L28.3 42.4c-.2.2-.3.5-.3.8v2.2c0 .7.6 1.3 1.3 1.3h8.8v5.1c0 .7.6 1.3 1.3 1.3s1.3-.6 1.3-1.3v-5.1h2.1c.7 0 1.3-.6 1.3-1.3s-.6-1.3-1.3-1.3zm-4.7 0h-7.5v-.4l7.5-9.1v9.5zM23.5 30.9v20.9c0 .7-.6 1.3-1.3 1.3s-1.3-.6-1.3-1.3V33.4l-4.6 3.1c-.6.4-1.4.3-1.8-.3-.4-.6-.3-1.4.3-1.8l6.6-4.5c.4-.3.9-.3 1.3-.1.5.2.8.6.8 1.1z"></path>
		</symbol>
	
		<symbol id="icon-Calendar_30" viewBox="0 0 60 60">
			<path d="M50.9 6.2h-9.2V1.3c0-.4-.3-.6-.7-.6s-.7.3-.7.6v4.9H19.6V1.3c0-.4-.3-.6-.6-.6s-.6.3-.6.6v4.9H9c-3.3 0-6 2.7-6 6V54c0 3.3 2.7 6 6 6h41.8c3.3 0 6-2.7 6-6V12.2c.1-3.4-2.6-6-5.9-6zM6.7 9.8c.6-.6 1.5-1 2.4-1h9.3v1.8a2.795 2.795 0 0 0 .7 5.5c1.6 0 2.8-1.2 2.8-2.8 0-1.3-.9-2.4-2.1-2.7V8.8h20.7v1.8a2.795 2.795 0 0 0 .7 5.5c1.6 0 2.8-1.2 2.8-2.8 0-1.3-.9-2.4-2.1-2.7V8.8h9.2c1.9 0 3.4 1.5 3.4 3.4v11.3H5.7V12.2c0-.9.4-1.8 1-2.4zM19 13.9c.4 0 .6-.3.6-.6V12c.5.2.8.7.8 1.3 0 .8-.7 1.5-1.5 1.5s-1.5-.7-1.5-1.5c0-.6.3-1 .8-1.3v1.3c.2.4.4.6.8.6zm22 0c.4 0 .7-.3.7-.6V12c.5.2.8.7.8 1.3 0 .8-.6 1.5-1.4 1.5s-1.4-.7-1.4-1.5c0-.6.3-1 .8-1.3v1.3c-.2.4.1.6.5.6zm9.9 43.5H9.1c-1.9 0-3.4-1.5-3.4-3.4V24.8h48.6V54c0 1.9-1.5 3.4-3.4 3.4zM43 30c-.2-.2-.6-.4-.9-.4H35c-.3 0-.7.1-.9.4l-1.5 1.5c-.2.2-.4.6-.4.9v18c0 .4.1.7.4 1l1.5 1.4c.2.2.6.3.9.3h7.1c.3 0 .6-.1.9-.3l1.5-1.4c.3-.2.4-.6.4-1v-18c0-.3-.1-.7-.4-.9L43 30zm-.7 19.8l-.7.7h-6.1l-.7-.7V32.9l.7-.7h6l.7.7v16.9zM27.4 39.5c.2.2.4.6.4.9v10c0 .4-.1.7-.4 1l-1.5 1.4c-.2.2-.6.3-.9.3h-7.1c-.3 0-.6-.1-.9-.3l-1.5-1.4c-.5-.5-.5-1.4-.1-1.9.5-.5 1.3-.6 1.8-.1l1.1 1h6.1l.7-.7v-8.9l-.7-.7H20c-.2 0-.3 0-.5-.1-.1 0-.1-.1-.2-.1s-.1-.1-.2-.1v-.1l-.2-.2c0-.1-.1-.1-.1-.2s0-.1-.1-.2c0-.1 0-.2-.1-.3v-.3c0-.1 0-.2.1-.3 0-.1.1-.2.1-.2s0-.1.1-.2l4.8-5.9h-6.4c-.7 0-1.3-.6-1.3-1.3 0-.7.6-1.3 1.3-1.3h9.1c.5 0 1 .3 1.2.7.2.5.2 1-.2 1.4l-4.8 5.9H25c.2 0 .3 0 .5.1s.3.2.4.3l1.5 1.8z"></path>
		</symbol>
	
		<symbol id="icon-Hints_and_Tips" viewBox="0 0 60 60">
			<path d="M41.38 11.69a16.55 16.55 0 0 0-11.27-3.9 16.67 16.67 0 0 0-11.3 3.9c-6.46 5.61-5.49 14.24-5.36 15.2a18.32 18.32 0 0 0 5.19 10.3 1.39 1.39 0 0 1 .31.5l3.43 9.91a1.31 1.31 0 0 0 1.23.87h12.93a1.29 1.29 0 0 0 1.24-.9l3.15-9.86a1.26 1.26 0 0 1 .32-.53 18.29 18.29 0 0 0 5.43-12.09c.1-2.53-.2-8.9-5.3-13.4zm-14.07 19.8l1.5.39a4.8 4.8 0 0 0 2.38 0l1.5-.39-1 14.38h-3.36zM44.08 25a16 16 0 0 1-4.67 10.37 3.93 3.93 0 0 0-1 1.57l-2.86 8.95H33l1-14.73 2.86-.74a2.86 2.86 0 0 0-.73-5.62h-.32A2.88 2.88 0 0 0 33 27.44l-.19 2.68-1.91.5a3.42 3.42 0 0 1-1.74 0l-1.91-.5-.25-2.68a2.88 2.88 0 0 0-2.85-2.66h-.32a2.86 2.86 0 0 0-.73 5.62l2.86.74 1 14.73h-2.43l-3.13-9a3.83 3.83 0 0 0-.93-1.48A15.75 15.75 0 0 1 16 26.54c-.11-.82-.94-8.18 4.49-12.89a14.17 14.17 0 0 1 9.6-3.26 14.08 14.08 0 0 1 9.55 3.25c4.28 3.76 4.53 9.19 4.44 11.36zm-10 4.8l.16-2.25a1.57 1.57 0 0 1 1.55-1.45h.32a1.56 1.56 0 0 1 .4 3.06zm-8.22 0l-2.43-.63a1.56 1.56 0 0 1 .4-3.07h.32a1.57 1.57 0 0 1 1.55 1.45zM9.72 48.86a.68.68 0 0 1-.46-.19.65.65 0 0 1 0-.92l4.45-4.5a.64.64 0 0 1 .91 0 .65.65 0 0 1 0 .92l-4.45 4.5a.65.65 0 0 1-.45.19zm2.22-38.44a.65.65 0 0 1-.46-.19L7 5.71a.65.65 0 0 1 0-.92.66.66 0 0 1 .92 0l4.48 4.52a.65.65 0 0 1-.46 1.11zM7.46 28.13H1.09a.65.65 0 0 1-.65-.65.66.66 0 0 1 .65-.65h6.37a.65.65 0 0 1 .65.65.66.66 0 0 1-.65.65zm29.09 21.81a1.3 1.3 0 0 0-1-.44H24.42a1.31 1.31 0 0 0-1.29 1.5l.49 3.95A5.81 5.81 0 0 0 29.37 60h1.26a5.81 5.81 0 0 0 5.75-5.09l.49-3.91a1.31 1.31 0 0 0-.32-1.06zM26.2 54.59l-.05-.39h7.69v.37a3.56 3.56 0 0 1-.1.47h-7.4a3.13 3.13 0 0 1-.14-.45zm7.91-2.49l-.11.83h-8l-.1-.8zm-3.48 5.3h-1.26A3.18 3.18 0 0 1 27 56.33h6a3.17 3.17 0 0 1-2.37 1.07zm19.7-8.59a.61.61 0 0 1-.45-.19l-4.55-4.4a.65.65 0 1 1 .91-.93l4.54 4.4a.65.65 0 0 1 0 .92.67.67 0 0 1-.45.2zm-2.27-38.39a.65.65 0 0 1-.46-1.11l4.48-4.52a.66.66 0 0 1 .92 0 .65.65 0 0 1 0 .92l-4.49 4.52a.65.65 0 0 1-.45.19zm4.48 17.71a.66.66 0 0 1-.65-.65.65.65 0 0 1 .65-.65h6.37a.66.66 0 0 1 .65.65.65.65 0 0 1-.65.65h-6.37z"></path>
		</symbol>
	
		<symbol id="icon-No_Landline" viewBox="0 0 60 60">
			<path d="M6.9 53.66a.65.65 0 0 1-.45-1.11L52.1 7.06A.65.65 0 1 1 53 8L7.36 53.47a.62.62 0 0 1-.46.19zm47-16.52a35.68 35.68 0 0 1-7.82-2 7.1 7.1 0 0 0-7.46 1.6l-3 3a44.67 44.67 0 0 1-6.08-4.38l-1.85 1.85a47.12 47.12 0 0 0 7.5 5.29 1.32 1.32 0 0 0 1.56-.21l3.66-3.66a4.5 4.5 0 0 1 4.72-1 38.07 38.07 0 0 0 8.38 2.08 4.47 4.47 0 0 1 3.85 4.53v8.68a4.36 4.36 0 0 1-.5 2.08 36.64 36.64 0 0 1-4.07-.29 53.46 53.46 0 0 1-23.18-8.26 51.72 51.72 0 0 1-6.37-4.79l-.64.65a53.46 53.46 0 0 0 6.52 4.91 54.32 54.32 0 0 0 23.57 8.39c.12 0 1.89.25 3.55.29A4.48 4.48 0 0 1 53 57.4h-.4a56.06 56.06 0 0 1-24.4-8.66 54.74 54.74 0 0 1-6.86-5.17l-1.85 1.84a58.26 58.26 0 0 0 7.3 5.52 58.87 58.87 0 0 0 25.5 9h.65a7.08 7.08 0 0 0 7-7.08v-8.56a7.06 7.06 0 0 0-6.04-7.15zM5.29 7.17l-.4-4a4.37 4.37 0 0 1 1.78-.56h9.11a4.48 4.48 0 0 1 4.43 3.82 38.6 38.6 0 0 0 2.09 8.39 4.46 4.46 0 0 1-1 4.7l-3.67 3.65a1.32 1.32 0 0 0-.21 1.57 47.61 47.61 0 0 0 5.35 7.54l1.85-1.85a45 45 0 0 1-4.44-6.13l3-2.95a7.08 7.08 0 0 0 1.6-7.45 35.42 35.42 0 0 1-2-7.82 7.06 7.06 0 0 0-7-6.07H6.44A7.06 7.06 0 0 0 0 7.72a58.55 58.55 0 0 0 9.09 25.53 56.82 56.82 0 0 0 5.45 7.21l1.85-1.84a54.28 54.28 0 0 1-5.12-6.78A55.86 55.86 0 0 1 2.62 7.46a4.41 4.41 0 0 1 1-3.26A4.93 4.93 0 0 1 4 3.81l.34 3.45a54.25 54.25 0 0 0 8.37 23.59 53.53 53.53 0 0 0 4.9 6.51l.65-.64a51.79 51.79 0 0 1-4.78-6.36A53.17 53.17 0 0 1 5.29 7.17z"></path>
		</symbol>
	
		<symbol id="icon-Plug_and_play" viewBox="0 0 60 60">
			<path d="M30.3 23h-.6a2.15 2.15 0 0 1-2.15-2.15V14a2.15 2.15 0 0 1 2.15-2.14h.6A2.15 2.15 0 0 1 32.45 14v6.8A2.15 2.15 0 0 1 30.3 23zm-.6-9.79a.84.84 0 0 0-.85.84v6.8a.85.85 0 0 0 .85.85h.6a.85.85 0 0 0 .85-.85V14a.84.84 0 0 0-.85-.84zm.3 13.71A3.08 3.08 0 1 0 33.08 30 3.08 3.08 0 0 0 30 26.92zM31.78 30a1.71 1.71 0 0 1-.15.71l-2.34-2.34a1.71 1.71 0 0 1 .71-.15A1.78 1.78 0 0 1 31.78 30zm-3.56 0a1.71 1.71 0 0 1 .15-.71l2.34 2.34a1.71 1.71 0 0 1-.71.15A1.78 1.78 0 0 1 28.22 30zM23.3 40.94h-6.81a2.14 2.14 0 0 1-2.14-2.14v-.61a2.14 2.14 0 0 1 2.14-2.14h6.81a2.14 2.14 0 0 1 2.14 2.14v.61a2.14 2.14 0 0 1-2.14 2.14zm-6.81-3.59a.85.85 0 0 0-.84.84v.61a.85.85 0 0 0 .84.84h6.81a.85.85 0 0 0 .84-.84v-.61a.85.85 0 0 0-.84-.84zm27 3.59H36.7a2.14 2.14 0 0 1-2.14-2.14v-.61a2.14 2.14 0 0 1 2.14-2.14h6.81a2.14 2.14 0 0 1 2.14 2.14v.61a2.14 2.14 0 0 1-2.14 2.14zm-6.79-3.59a.85.85 0 0 0-.84.84v.61a.85.85 0 0 0 .84.84h6.81a.85.85 0 0 0 .84-.84v-.61a.85.85 0 0 0-.84-.84zm15.41-2.56L49 16.17A12.17 12.17 0 0 0 37 6H23.05A12.17 12.17 0 0 0 11 16.17L7.89 34.79A12.2 12.2 0 0 0 19.92 49h5.62a3.56 3.56 0 0 0-.05.47v6a4.51 4.51 0 1 0 9 0v-6a3.56 3.56 0 0 0 0-.47h5.62a12.2 12.2 0 0 0 12-14.23zm-20.2 14.7v6a1.91 1.91 0 1 1-3.82 0v-6a1.84 1.84 0 0 1 .07-.47h3.68a1.84 1.84 0 0 1 .07.47zM47.41 43a9.59 9.59 0 0 1-7.33 3.4H19.92a9.61 9.61 0 0 1-9.47-11.2l3.13-18.6a9.57 9.57 0 0 1 9.47-8H37a9.57 9.57 0 0 1 9.47 8l3.13 18.62A9.6 9.6 0 0 1 47.41 43z"></path>
		</symbol>
	
		<symbol id="icon-Router" viewBox="0 0 60 60">
			<path d="M47.2 60h-6a5.8 5.8 0 0 1-5.54-4.17H24.34A5.8 5.8 0 0 1 18.8 60h-6a5.8 5.8 0 0 1-5.54-4.17H5.81A5.8 5.8 0 0 1 0 50V5.8A5.8 5.8 0 0 1 5.81 0H54.2A5.8 5.8 0 0 1 60 5.8V50a5.8 5.8 0 0 1-5.8 5.8h-1.46A5.8 5.8 0 0 1 47.2 60zm-23.93-6.77h13.46A1.31 1.31 0 0 1 38 54.44a3.2 3.2 0 0 0 3.17 3h6a3.2 3.2 0 0 0 3.17-3 1.31 1.31 0 0 1 1.3-1.21h2.56A3.2 3.2 0 0 0 57.4 50V5.8a3.2 3.2 0 0 0-3.2-3.2H5.81a3.2 3.2 0 0 0-3.2 3.2V50a3.2 3.2 0 0 0 3.2 3.2h2.52a1.31 1.31 0 0 1 1.3 1.21 3.2 3.2 0 0 0 3.17 3h6a3.2 3.2 0 0 0 3.17-3 1.31 1.31 0 0 1 1.3-1.18zm27.47-7.58H9.26A3.66 3.66 0 0 1 5.6 42v-1.5a3.66 3.66 0 0 1 3.66-3.65h41.48a3.66 3.66 0 0 1 3.66 3.65V42a3.66 3.66 0 0 1-3.66 3.65zm-41.48-7.5a2.35 2.35 0 0 0-2.35 2.35V42a2.35 2.35 0 0 0 2.35 2.35h41.48A2.35 2.35 0 0 0 53.09 42v-1.5a2.35 2.35 0 0 0-2.35-2.35zm2.27 4.9a1.8 1.8 0 1 1 1.8-1.8 1.81 1.81 0 0 1-1.8 1.8zm0-2.3a.5.5 0 0 0 0 1 .5.5 0 1 0 0-1zm5.41 2.3a1.8 1.8 0 1 1 1.8-1.8 1.81 1.81 0 0 1-1.8 1.8zm0-2.3a.5.5 0 1 0 0 1 .5.5 0 0 0 0-1zm5.41 2.3a1.8 1.8 0 1 1 1.8-1.8 1.8 1.8 0 0 1-1.8 1.8zm0-2.3a.5.5 0 1 0 .5.5.5.5 0 0 0-.5-.5zm27.15 2.3h-3.3a1.8 1.8 0 0 1 0-3.6h3.3a1.8 1.8 0 0 1 0 3.6zm-3.3-2.3a.5.5 0 0 0 0 1h3.3a.5.5 0 0 0 0-1z"></path>
		</symbol>
	
		<symbol id="icon-SameDay_Next-Day_Delivery" viewBox="0 0 60 60">
			<path d="M44.26 49.37h-2.85a.65.65 0 0 1 0-1.3h2.85a.65.65 0 0 1 0 1.3zm-.37-3.22a.65.65 0 0 0-.65-.65h-4.71a.65.65 0 1 0 0 1.3h4.71a.65.65 0 0 0 .65-.65zM9 49.37H6.18a.65.65 0 0 1 0-1.3H9a.65.65 0 1 1 0 1.3zm-.38-3.22A.65.65 0 0 0 8 45.5H3.3a.65.65 0 0 0 0 1.3H8a.65.65 0 0 0 .66-.65zm8.82-37.9H3.3a2.3 2.3 0 0 0-2.3 2.3v8a2.3 2.3 0 0 0 2.3 2.3h14.18a2.3 2.3 0 0 0 2.3-2.3v-8a2.3 2.3 0 0 0-2.3-2.3zm-.3 2.6v1.39H3.6v-1.39zM3.6 18.25v-4.71h13.58v4.71zM52.56 35l.78-.67a3.2 3.2 0 0 0 1.07-2.4c.12-3.18-3.07-8.13-6.29-11.37a23.6 23.6 0 0 0-3.77-3c-1-.66-1.75-1.15-2.27-1.46l-.18-.82 1.33.46c.66.23 1.28.45 1.56.53a.63.63 0 0 0 .19 0 .65.65 0 0 0 .57-.33 5.15 5.15 0 0 0 .58-3.31 5 5 0 0 0-1.62-3 .65.65 0 0 0-.82 0l-2.62 1.92L41 11a1.3 1.3 0 0 0-1.27-1h-4.45a1.3 1.3 0 0 0 0 2.6h3.37l1.1 4.9.11.5.11.47c.26 1.12.54 2.39.74 3.47.87 6.58.2 10.74-2.47 15.36l-2 3.43h-1.57v-5.07a13.32 13.32 0 0 0-13.27-13.3H5a1.3 1.3 0 0 0-.85 2.29L15 34H8.9a1.31 1.31 0 0 0-1.22.85 1.29 1.29 0 0 0 .37 1.43l2.54 2.18a7.11 7.11 0 1 0 13.13 4.87h18.59a1.29 1.29 0 0 0 .48-.1.75.75 0 0 0 .15-.09 1 1 0 0 0 .22-.13l1.78-1.53v.55A7.11 7.11 0 1 0 52.56 35zM16.73 46.55A4.52 4.52 0 0 1 12.22 42a4.65 4.65 0 0 1 .39-1.83l1.68 1.44a2.47 2.47 0 0 0 4.54 1.69H21a4.52 4.52 0 0 1-4.27 3.25zm.49-5.81L16 39.69l-3.58-3.08H18l4.78 4.13zm14.86 0h-5.35L8.48 25h12.91a10.72 10.72 0 0 1 10.69 10.7zM44 11a3.77 3.77 0 0 1 .64 3.82l-1-.34-1.75-.61-.23-1.16zm3.16 25.19l-5.33 4.57h-2.57l1.23-2.13c3.41-5.91 3.6-10.88 2.79-17.06-.11-.62-.24-1.26-.38-1.9a21 21 0 0 1 3.36 2.7c3.14 3.15 5.62 7.38 5.54 9.43a.85.85 0 0 1-.16.52l-4.49 3.86zM52 46.55a4.51 4.51 0 0 1-3.76-7l1.42 1.71a2.21 2.21 0 0 0-.14.78A2.48 2.48 0 1 0 52 39.56h-.34l-1.42-1.71a4.46 4.46 0 0 1 1.76-.32 4.51 4.51 0 0 1 0 9z"></path>
		</symbol>
	
		<symbol id="icon-Static_IP" viewBox="0 0 60 60">
			<path d="M34.49 47.09h-9a.65.65 0 0 1 0-1.3h9a.65.65 0 0 1 0 1.3zm4.82-12.88a.66.66 0 0 1-.3.07.65.65 0 0 1-.58-.34l-.57-1.07A8.56 8.56 0 0 1 30 38.15a8.56 8.56 0 0 1-7.87-5.27l-.56 1.06a.64.64 0 0 1-.57.34.67.67 0 0 1-.31-.07.65.65 0 0 1-.27-.88l1.3-2.44a.43.43 0 0 1 .14-.16.55.55 0 0 1 .15-.08h.34a.61.61 0 0 1 .13 0h.09L25 31.92a.65.65 0 0 1-.31 1.22.66.66 0 0 1-.3-.07l-1-.55a7.25 7.25 0 0 0 6 4.3v-13h-3.1a.65.65 0 0 1 0-1.3h3.1v-2.08a3.07 3.07 0 1 1 1.3 0v2.09h3.08a.65.65 0 0 1 0 1.3h-3.12v13a7.27 7.27 0 0 0 6-4.3l-1 .55a.66.66 0 0 1-.87-.27.65.65 0 0 1 .26-.88l2.44-1.3h.06a.43.43 0 0 1 .16-.05h.24a.59.59 0 0 1 .14.06l.09.05.11.11a.18.18 0 0 1 0 .07l1.3 2.44a.65.65 0 0 1-.27.9zm-9.31-15a1.78 1.78 0 1 0-1.78-1.78A1.78 1.78 0 0 0 30 19.21zm29.79 24.1v2.35a6.2 6.2 0 0 1-6.19 6.19H6.39A6.2 6.2 0 0 1 .2 45.66v-2.35A1.29 1.29 0 0 1 1.49 42H4.2V13.4a5.26 5.26 0 0 1 5.25-5.25h41.08a5.26 5.26 0 0 1 5.25 5.25V42h2.71a1.29 1.29 0 0 1 1.29 1.31zM6.78 42H53.2V13.4a2.68 2.68 0 0 0-2.67-2.68H9.45a2.68 2.68 0 0 0-2.67 2.68zm50.42 2.6H2.78v1.06a3.62 3.62 0 0 0 3.61 3.62h47.2a3.62 3.62 0 0 0 3.61-3.62z"></path>
		</symbol>
	
		<symbol id="icon-Unlimited_Data" viewBox="0 0 60 60">
			<path d="M46.16 16.17a13.76 13.76 0 0 0-10.25 4.58c-.45.51-.89 1-1.34 1.55-3.42 4-6.73 8.18-9.84 12.42a14 14 0 0 1-7.51 6 12.39 12.39 0 0 1-3.35.5A11.25 11.25 0 0 1 2.6 30c0-6.69 5.86-11 11.28-11.24C18.1 18.61 21.06 20 23 23.1h-4.23a1.3 1.3 0 1 0 0 2.6h6.65a1.3 1.3 0 0 0 1.3-1.3v-6.93a1.3 1.3 0 1 0-2.6 0v2.76c-2.46-2.85-5.92-4.23-10.33-4.06C7.16 16.41 0 21.77 0 30a13.85 13.85 0 0 0 13.84 13.84 14.56 14.56 0 0 0 4.1-.62 16.32 16.32 0 0 0 8.77-6.85c3.1-4.24 6.4-8.41 9.81-12.39l1-1.13a11.24 11.24 0 1 1 8.66 18.39 12.73 12.73 0 0 1-3.31-.49 11.1 11.1 0 0 1-3.76-2.4c-1.32-1.13-3.87-3.91-3.89-3.94a1.3 1.3 0 0 0-1.92 1.75c.11.12 2.68 2.93 4.12 4.17A13.42 13.42 0 0 0 42 43.22a15.43 15.43 0 0 0 4.12.62 13.84 13.84 0 1 0 0-27.67z"></path>
		</symbol>
	
</svg>
