<svg viewBox="0 0 47 60" xmlns="http://www.w3.org/2000/svg"><path d="M2.313 13.84c0-.72.685-1.872 1.951-3.131 3.79-3.801 12.572-8.695 21.668-8.69 4.597-.001 8.341 1.138 10.829 3.261 2.156 1.836 3.34 4.444 3.34 7.336 0 4.448-2.094 7.514-3.37 9.37-.65.94-1.039 1.491-1.045 2.118-.001.497.237.915.624 1.312.389.4.934.8 1.604 1.298 2.65 1.961 7.002 5.164 7.004 11.775-.002 7.514-3.971 12.079-7.313 14.601-4.12 3.107-9.605 4.893-15.03 4.891C9.023 57.977 2.02 50.443 2.02 43.057a9.32 9.32 0 0 1 2.313-6.112c1.497-1.685 3.663-2.82 6.385-2.82 1.525 0 3.446.356 4.969 1.375 1.523 1.021 2.664 2.686 2.667 5.385 0 .079 0 .158-.002.236a4.321 4.321 0 0 0-.59-.96c-.55-.675-1.427-1.272-2.713-1.271-1.454.004-2.693 1.193-2.696 2.621 0 .27-.03.432-.065.513-.386.05-.81-.196-1.144-.68-.342-.49-.591-1.215-.591-2.144 0-.185.01-.379.031-.578l.046-.433-.29.325c-1.372 1.525-1.866 2.903-1.866 4.09.004 1.945 1.31 3.33 2.086 4.055.142.13.317.291.453.434.068.072.129.138.167.19.04.15-.103.335-.465.48-.39.164-1.013.293-1.902.293-.309 0-.651-.016-1.026-.05l-.34-.032.219.263c2.596 3.093 5.463 3.938 7.945 3.936 1.835 0 3.461-.456 4.636-.784.494-.14 1.054-.35 1.36-.346.13 0 .185.03.208.067.028.036.054.115.054.234.001.359-.21 1.012-.566 1.682-.354.673-.851 1.375-1.397 1.874l-.332.302.445-.058c7.58-.974 10.109-5.369 11.357-7.633.207-.38.403-.73.578-.978.17-.255.34-.378.38-.363.07-.003.187.065.31.252.374.552.687 1.936.684 3.377a8.77 8.77 0 0 1-.187 1.858l-.093.439.328-.307c2.862-2.649 3.647-5.435 3.646-7.754 0-1.778-.457-3.282-.776-4.256-.175-.538-.322-1.02-.319-1.248 0-.194.032-.291.072-.342.035-.047.098-.083.22-.115 1.21.003 2.644.435 4.365 1.254l.337.16-.145-.343c-2.337-5.465-7.538-7.812-12.605-9.091-2.537-.642-5.044-1.02-7.157-1.384-1.537-.265-2.866-.528-3.832-.874-.161-.07-.32-.143-.476-.214 2.895-.364 6.391-2.406 9.493-4.397 1.165-.747 2.07-1.505 2.793-2.108.379-.313.73-.605 1.026-.813.294-.212.545-.331.658-.324.105 0 .193.044.285.144.285.307.455 1.156.449 2.082 0 .744-.098 1.545-.278 2.185l-.101.358.313-.202c2.464-1.585 3.646-3.984 3.645-6.234.002-2.257-1.25-3.665-2.058-4.567a16.39 16.39 0 0 1-.383-.446 1.913 1.913 0 0 1-.188-.274.585.585 0 0 1 .222-.27c.517-.388 1.396-.627 2.418-.626.52 0 1.077.062 1.642.192l.387.087-.244-.313c-2.12-2.723-4.555-3.506-6.725-3.504-1.71 0-3.257.477-4.386.846-.55.18-1.31.415-1.637.412-.08-.404.204-1.074.749-1.783a8.738 8.738 0 0 1 2.429-2.136l.383-.23-.447-.033a8.249 8.249 0 0 0-.595-.02c-4.36.004-9.986 3.171-14.137 5.315-2.59 1.338-8.023 4.489-9.656 3.517-.274-.162-.45-.337-.45-.6zm24.25 27.391c1.805-1.643 2.832-4.103 2.832-6.746.003-1.264-.394-2.319-1.123-3.132 3.905.934 7.96 2.94 10.215 5.959-1.012-.329-1.719-.418-2.436-.418-.73.01-1.309.769-1.311 1.637 0 .456.172.97.38 1.616.325 1 .744 2.292.744 3.836-.001 1.421-.353 3.056-1.474 4.881-.033-1.472-.43-2.647-.94-3.28-.402-.486-.829-.61-1.117-.607-.465-.002-.83.23-1.13.583-.303.353-.565.83-.864 1.373-1.074 1.93-2.764 5.002-8.057 6.594.478-.826.727-1.67.727-2.348 0-.268-.039-.511-.125-.717-.161-.404-.514-.648-.915-.645-.588.02-1.265.205-2.045.428-1.218.34-2.695.755-4.321.755-1.682-.002-3.521-.441-5.411-1.872.658-.101 1.235-.327 1.658-.69.348-.3.565-.687.567-1.093-.01-.62-.496-1.043-1.051-1.553-.81-.764-1.774-1.66-1.773-3.17 0-.438.08-.928.272-1.487.174.476.423.913.746 1.276.494.533 1.086.861 1.664.862.608.009.968-.283 1.121-.65.158-.366.152-.787.153-1.112 0-.374.174-.73.451-.997a1.534 1.534 0 0 1 1.048-.434c.89.001 1.564.495 2.034 1.235.468.743.713 1.726.712 2.648 0 .573-.094 1.122-.28 1.572l-.204.49.42-.324c.796-.618 1.42-1.497 1.706-2.136.212.01.423.015.631.015 2.62.002 4.805-.797 6.496-2.349zm-6.989-18.37c1.238-.797 2.348-1.504 3.162-2.217.809-.708 1.34-1.434 1.342-2.274a2.427 2.427 0 0 0-.733-1.741c-.863-.847-2.39-1.246-4.294-1.458-1.904-.21-4.192-.216-6.566-.216h-.652c-1.956 0-3.515-.029-4.759-.08 1.728-.67 3.729-1.738 5.907-2.901 3.534-1.89 7.45-3.989 11.138-4.925-.852.966-1.403 2.064-1.408 3.012 0 .23.072.48.252.674.18.195.463.32.844.319.659-.002 1.393-.254 2.244-.524 1.152-.38 2.486-.814 3.953-.814 1.278.001 2.659.327 4.132 1.314-.979.062-1.778.348-2.28.744-.544.418-.678.897-.675 1.226.005.542.384.95.856 1.493.758.853 1.752 1.975 1.754 3.78 0 1.32-.505 2.72-1.256 3.783.004-.075.005-.153.005-.233-.002-.916-.203-1.95-.705-2.537a1.52 1.52 0 0 0-1.16-.537c-.775.007-1.442.597-2.436 1.415-.709.583-1.58 1.324-2.685 2.018-4.653 2.93-7.147 4.068-8.917 4.211-.654.054-1.633.043-.833-.757.818-.818 2.508-1.975 3.77-2.775zm18.212 1.189c.14-.24.388-.615.612-.93 1.296-1.88 3.727-5.432 3.727-10.504 0-2.912-1.065-6.073-3.63-8.501C35.932 1.686 31.878-.001 25.932 0 20.292.001 13.939 1.854 8.45 5.098c-2.462 1.46-4.489 3.034-5.909 4.544-1.414 1.51-2.234 2.955-2.238 4.199-.002.602.23 1.156.67 1.591.802.79 2.223 1.155 4.036 1.35 1.815.19 4.03.196 6.41.196h.426c3.67 0 6.265.098 7.924.34.83.122 1.425.28 1.793.467.375.194.493.377.495.585.007.088-.094.281-.322.504-.793.796-2.874 1.976-4.746 3.271-.938.65-1.827 1.332-2.489 2.029-.658.694-1.103 1.407-1.11 2.142.007.969.501 1.717 1.256 2.297 2.276 1.746 6.993 2.203 9.46 2.652 1.52.277 2.328.818 2.765 1.406.435.593.515 1.254.516 1.814-.001 2.114-.786 3.981-2.194 5.257-1.25 1.15-2.76 1.895-4.96 1.899-.084 0-.173-.002-.262-.004.053-.421.078-.834.078-1.236.001-2.486-.98-4.563-2.64-6.003-1.662-1.442-3.997-2.252-6.707-2.252-3.343-.001-6.027 1.387-7.864 3.446C1.001 37.651.001 40.374 0 43.057c-.001 4.224 1.949 8.466 5.745 11.646C9.543 57.883 15.187 60 22.575 60c5.858 0 11.766-1.934 16.237-5.293 3.704-2.79 8.132-7.875 8.13-16.218.002-7.634-5.124-11.406-7.824-13.393-.493-.358-1.072-.79-1.332-1.046z" id="Symbols" fill="#FFF" fill-rule="evenodd"/></svg>